<?xml version="1.0" standalone="no"?>
<!DOCTYPE svg PUBLIC "-//W3C//DTD SVG 20010904//EN"
 "http://www.w3.org/TR/2001/REC-SVG-20010904/DTD/svg10.dtd">
<svg version="1.0" xmlns="http://www.w3.org/2000/svg"
 width="16.000000pt" height="16.000000pt" viewBox="0 0 16.000000 16.000000"
 preserveAspectRatio="xMidYMid meet">
<metadata>
Created by potrace 1.11, written by Peter Selinger 2001-2013
</metadata>
<g transform="translate(0.000000,16.000000) scale(0.001356,-0.001356)"
fill="#000000" stroke="none">
<path d="M5440 11229 c-661 -53 -1327 -238 -1919 -533 -1664 -830 -2757 -2453
-2901 -4310 -13 -166 -13 -626 0 -792 53 -690 234 -1345 539 -1954 111 -222
175 -333 316 -546 88 -133 111 -175 102 -184 -9 -10 -9 -11 0 -6 13 7 12 -19
-2 -31 -4 -5 -4 -1 0 7 8 13 7 13 -8 1 -14 -11 -15 -16 -5 -29 10 -13 10 -14
1 -8 -8 4 -13 1 -13 -9 0 -9 -5 -13 -10 -10 -6 4 -10 3 -9 -2 4 -22 -2 -34
-13 -27 -9 5 -9 2 1 -9 9 -12 10 -17 2 -17 -7 0 -10 -4 -6 -9 3 -6 -3 -14 -12
-20 -10 -6 -13 -11 -6 -11 19 0 3 -30 -16 -30 -14 0 -14 -2 -1 -10 8 -5 10
-10 5 -10 -10 0 -35 -48 -39 -75 -1 -8 -11 -22 -22 -31 -10 -8 -13 -13 -6 -9
6 3 12 1 12 -5 0 -6 -7 -13 -15 -16 -8 -4 -13 -10 -10 -14 3 -5 1 -11 -5 -15
-6 -4 -8 -10 -5 -15 3 -5 -3 -14 -12 -20 -16 -10 -16 -11 2 -5 15 5 17 3 8 -6
-6 -6 -9 -19 -6 -28 4 -14 3 -14 -6 -1 -10 14 -16 7 -12 -14 1 -5 -6 -6 -15
-2 -14 5 -15 4 -4 -9 10 -12 9 -15 -6 -16 -11 0 -14 -3 -6 -6 6 -2 12 -9 12
-14 0 -6 -4 -7 -10 -4 -6 3 -7 -1 -4 -9 3 -9 1 -16 -6 -16 -6 0 -8 -4 -5 -10
3 -5 1 -10 -6 -10 -8 0 -7 -5 2 -17 12 -15 12 -16 -3 -11 -20 8 -31 -15 -15
-32 9 -10 9 -11 0 -6 -8 5 -13 1 -13 -9 0 -10 -5 -13 -13 -9 -6 4 -3 -3 7 -15
17 -19 18 -21 3 -15 -12 4 -17 2 -15 -7 2 -8 -2 -13 -8 -12 -6 1 -11 -4 -11
-12 0 -8 4 -12 9 -9 5 4 4 -3 -4 -15 -7 -12 -17 -21 -23 -21 -5 0 -4 -4 4 -9
7 -5 10 -14 7 -20 -4 -6 -12 -8 -18 -5 -7 4 -8 2 -4 -4 4 -7 2 -12 -5 -12 -8
0 -7 -5 2 -17 10 -11 10 -14 1 -9 -8 5 -12 -2 -12 -23 0 -18 -5 -31 -12 -31
-9 0 -8 -4 2 -10 10 -6 11 -10 3 -10 -9 0 -13 -19 -13 -60 0 -50 3 -60 18 -61
14 0 14 -2 -3 -9 -11 -5 -14 -9 -6 -9 7 -1 11 -7 8 -16 -4 -8 -2 -17 3 -20 5
-3 7 -14 5 -24 -2 -12 6 -23 21 -31 17 -10 22 -19 18 -32 -4 -13 0 -18 13 -18
21 0 43 -18 43 -34 0 -6 -5 -3 -11 7 -5 9 -14 17 -19 17 -6 0 -2 -9 7 -19 9
-11 23 -17 31 -14 11 5 13 0 8 -18 -3 -13 -3 -18 0 -11 3 6 12 12 20 12 9 0
12 -5 8 -12 -5 -8 -2 -9 10 -5 10 4 15 3 11 -3 -5 -8 16 -17 56 -23 8 -2 19
-6 26 -10 6 -4 14 -3 18 3 4 6 12 7 18 3 15 -9 47 -11 47 -3 0 9 32 6 48 -4
14 -8 35 1 28 13 -3 4 10 7 29 6 19 0 31 3 28 9 -4 5 1 7 10 3 9 -3 19 -1 23
5 5 7 2 8 -7 4 -8 -4 -6 -1 4 8 11 8 27 13 38 11 10 -2 19 0 19 4 0 5 9 11 20
14 11 3 18 2 15 -2 -2 -4 2 -8 10 -8 8 0 12 4 9 9 -3 4 2 8 11 8 9 0 13 5 10
10 -9 14 8 13 23 -2 9 -9 12 -8 12 4 0 9 7 19 16 22 10 4 13 2 8 -7 -4 -6 3
-2 15 11 16 16 29 20 47 16 14 -4 24 -2 23 2 -3 20 2 26 15 15 11 -9 15 -8 20
4 3 9 10 13 16 10 5 -3 10 -2 10 4 0 6 6 8 14 5 8 -3 24 5 36 18 13 13 19 16
15 8 -8 -13 -6 -13 7 -2 13 10 17 10 21 0 4 -10 6 -10 6 0 1 6 6 12 12 12 7 0
18 8 26 18 8 9 12 11 8 5 -4 -9 -1 -11 9 -7 9 3 16 13 16 21 0 12 3 13 14 4
16 -14 32 2 20 20 -4 8 0 8 15 0 14 -8 21 -8 21 -1 0 5 6 9 13 8 6 -2 11 3 9
10 -2 10 2 10 18 2 16 -9 22 -8 26 5 3 8 17 15 30 15 15 0 24 6 24 16 0 14 2
15 17 3 9 -8 14 -9 11 -4 -4 6 2 17 14 24 16 10 19 10 14 -1 -4 -7 -1 -6 6 4
10 14 19 10 82 -41 834 -676 1843 -1078 2920 -1161 166 -13 626 -13 792 0
1635 127 3096 988 3996 2355 134 203 199 316 309 535 305 609 486 1264 539
1954 5 71 10 249 10 396 0 147 -5 325 -10 396 -53 690 -234 1345 -539 1954
-110 219 -175 332 -308 534 -106 161 -121 190 -101 202 7 5 8 2 3 -6 -6 -9 -4
-11 4 -6 7 5 10 14 7 21 -2 7 3 16 12 20 15 6 15 8 -3 22 -15 12 -16 14 -3 10
9 -3 22 1 30 11 11 13 11 14 0 8 -11 -7 -11 -4 -1 12 7 12 16 19 19 17 3 -2 6
10 7 27 0 17 7 34 14 39 12 7 11 9 -1 9 -9 0 -7 5 8 16 17 12 20 19 12 29 -8
10 -8 15 1 21 8 5 9 3 4 -7 -8 -12 -6 -12 8 0 13 10 15 17 6 27 -9 11 -7 15 5
20 9 3 13 10 10 15 -3 5 0 9 6 9 7 0 10 6 7 14 -3 8 1 17 8 20 8 3 12 14 10
26 -2 11 0 20 5 20 5 0 7 9 5 20 -2 11 0 20 6 20 5 0 9 12 9 26 0 14 4 23 10
19 6 -3 10 -1 10 4 0 6 -5 11 -12 11 -6 0 -1 9 12 20 13 11 17 20 10 20 -10 0
-10 3 0 15 7 8 9 15 5 15 -5 0 0 10 11 22 12 13 13 18 4 13 -12 -7 -13 -6 -3
7 7 8 10 18 6 21 -3 4 -1 7 5 7 6 0 9 9 7 20 -2 11 1 20 6 20 6 0 9 6 6 13 -2
6 3 18 12 25 12 10 13 12 1 6 -13 -7 -13 -6 -1 9 8 10 11 20 8 24 -4 3 -2 12
4 20 7 7 13 28 15 45 2 18 9 35 15 39 8 4 7 8 -2 12 -11 4 -11 6 -1 6 7 1 10
6 7 11 -3 6 -2 10 4 10 7 0 7 8 1 25 -7 19 -6 23 5 19 10 -4 13 0 10 15 -2 12
0 21 5 21 5 0 7 9 5 20 -2 11 0 18 6 15 5 -4 9 7 9 24 0 16 5 33 10 36 6 3 10
12 10 18 0 7 -4 6 -10 -3 -6 -9 -10 -10 -10 -3 0 6 5 15 10 18 6 3 10 15 10
26 0 10 6 19 13 19 7 0 8 3 2 8 -13 9 -18 35 -5 27 6 -4 10 12 10 44 0 30 5
51 13 54 9 4 8 8 -3 16 -9 7 -10 11 -3 11 9 0 13 41 15 144 2 79 0 142 -4 140
-4 -2 -10 1 -14 7 -3 6 0 15 7 20 11 7 11 9 -3 9 -9 0 -20 5 -24 12 -4 7 -3 8
4 4 17 -10 15 1 -5 23 -9 11 -21 18 -27 15 -6 -3 -2 2 8 10 19 16 19 16 -5 16
-19 0 -21 2 -9 10 13 9 13 10 0 10 -13 0 -13 1 0 11 12 8 9 9 -9 4 -21 -6 -23
-4 -19 13 5 16 2 20 -14 17 -16 -4 -18 -2 -7 11 10 12 9 13 -6 7 -14 -5 -17
-3 -12 10 4 12 2 14 -10 10 -12 -5 -14 -3 -8 8 7 12 6 12 -7 1 -13 -11 -16
-10 -14 5 1 13 -6 18 -21 17 -13 0 -23 5 -23 12 0 8 -7 11 -17 7 -10 -3 -15
-3 -11 2 9 10 -16 35 -36 35 -8 0 -18 5 -21 10 -4 7 -13 7 -26 0 -14 -8 -19
-7 -19 2 0 8 -3 9 -11 1 -6 -6 -25 -7 -49 -3 -24 4 -43 3 -49 -3 -8 -8 -11 -7
-11 2 0 7 -5 9 -11 5 -7 -4 -43 -6 -80 -5 -50 1 -69 -1 -69 -10 0 -10 -3 -10
-11 -2 -9 9 -15 8 -26 -3 -12 -11 -18 -12 -29 -3 -8 6 -14 7 -14 2 0 -5 -6
-10 -12 -11 -40 -3 -69 -10 -76 -17 -4 -4 -1 -5 7 0 10 5 12 4 7 -4 -4 -6 -11
-9 -16 -6 -5 3 -18 1 -28 -4 -13 -7 -22 -7 -30 1 -8 8 -12 8 -12 2 0 -6 -15
-10 -34 -9 -29 1 -33 -2 -23 -14 10 -12 9 -13 -10 -3 -17 10 -22 9 -27 -4 -5
-14 -9 -14 -23 -3 -9 8 -14 9 -10 3 4 -7 0 -14 -8 -18 -8 -3 -17 -1 -21 5 -4
7 -10 6 -18 0 -7 -6 -16 -8 -19 -4 -4 3 -7 1 -7 -5 0 -7 -5 -12 -11 -12 -5 0
-7 6 -4 13 4 6 -2 2 -13 -10 -24 -27 -34 -29 -25 -5 3 11 0 9 -11 -6 -10 -12
-22 -20 -27 -17 -5 4 -9 1 -9 -6 0 -9 -3 -9 -14 0 -11 9 -16 9 -23 -1 -4 -7
-17 -14 -28 -16 -11 -1 -28 -3 -37 -4 -10 -1 -20 -8 -23 -16 -3 -9 -10 -10
-24 -3 -14 8 -22 7 -32 -5 -7 -8 -18 -13 -25 -10 -8 3 -19 0 -26 -7 -13 -12
-21 -14 -58 -20 -11 -2 -23 -7 -27 -12 -5 -4 -2 -5 6 0 9 5 12 4 8 -3 -4 -5
-16 -8 -27 -5 -11 3 -20 0 -20 -6 0 -5 -7 -8 -15 -5 -8 4 -15 1 -15 -6 0 -9
-3 -10 -14 -1 -11 9 -15 7 -20 -11 -5 -19 -8 -20 -16 -8 -7 11 -10 11 -10 2 0
-7 -4 -11 -9 -7 -5 3 -12 1 -16 -5 -4 -6 -11 -8 -16 -5 -5 4 -9 1 -9 -5 0 -6
-4 -8 -10 -5 -5 3 -10 1 -10 -5 0 -6 -5 -8 -12 -4 -7 5 -9 2 -6 -8 5 -11 -1
-14 -24 -13 -16 1 -32 -4 -35 -11 -2 -7 -11 -10 -19 -7 -8 3 -14 0 -14 -7 0
-10 -3 -10 -15 0 -14 12 -20 5 -17 -21 1 -3 -5 -6 -13 -6 -8 0 -12 5 -9 11 3
6 -4 0 -16 -14 -12 -14 -19 -20 -16 -14 3 6 -1 11 -9 11 -8 0 -12 -4 -9 -9 3
-4 0 -8 -6 -8 -6 0 -9 -4 -5 -9 3 -5 0 -13 -6 -17 -7 -4 -9 -3 -6 3 4 6 0 14
-9 17 -8 3 -12 2 -9 -4 3 -6 -2 -10 -12 -10 -10 0 -24 -9 -31 -20 -7 -11 -17
-20 -23 -20 -5 0 -7 6 -3 13 6 9 4 9 -8 -1 -13 -10 -30 -4 -104 39 -49 28
-168 91 -264 139 -607 305 -1266 487 -1949 540 -156 12 -667 11 -821 -1z
m5015 -1348 c3 -5 2 -12 -3 -15 -5 -3 -9 1 -9 9 0 17 3 19 12 6z"/>
<path d="M1230 1740 c0 -5 5 -10 11 -10 5 0 7 5 4 10 -3 6 -8 10 -11 10 -2 0
-4 -4 -4 -10z"/>
<path d="M1930 1726 c0 -2 7 -7 16 -10 8 -3 12 -2 9 4 -6 10 -25 14 -25 6z"/>
</g>
</svg>
